<svg width="76" height="76" viewBox="0 0 76 76" fill="none" xmlns="http://www.w3.org/2000/svg">
<rect width="76" height="76" rx="18.24" fill="#2ECC71"/>
<path d="M13.68 50.16L28.88 36.48L41.8 42.56L59.28 22.8" stroke="white" stroke-width="4.18" stroke-linecap="round" stroke-linejoin="round"/>
<g clip-path="url(#clip0_1_3)">
<rect x="42.56" y="49.4" width="24.32" height="15.2" rx="4.18" fill="#0F172A"/>
<path d="M49.4212 54.4254H50.7183L52.0882 57.7677H52.1465L53.5164 54.4254H54.8135V59.4H53.7933V56.1622H53.7521L52.4647 59.3757H51.77L50.4826 56.15H50.4414V59.4H49.4212V54.4254ZM58.9786 56.0334C58.9446 55.9152 58.8968 55.8108 58.8353 55.7201C58.7738 55.6278 58.6985 55.5501 58.6094 55.4869C58.522 55.4221 58.4216 55.3727 58.3082 55.3387C58.1965 55.3047 58.0726 55.2877 57.9366 55.2877C57.6823 55.2877 57.4589 55.3509 57.2662 55.4772C57.0751 55.6035 56.9261 55.7873 56.8192 56.0286C56.7124 56.2682 56.6589 56.5613 56.6589 56.9079C56.6589 57.2544 56.7116 57.5491 56.8168 57.792C56.9221 58.0349 57.071 58.2203 57.2637 58.3482C57.4564 58.4746 57.684 58.5377 57.9463 58.5377C58.1843 58.5377 58.3876 58.4956 58.556 58.4114C58.726 58.3256 58.8555 58.2049 58.9446 58.0495C59.0353 57.894 59.0806 57.7102 59.0806 57.4981L59.2944 57.5297H58.0119V56.7378H60.0935V57.3645C60.0935 57.8017 60.0012 58.1774 59.8166 58.4916C59.632 58.8041 59.3778 59.0454 59.0539 59.2154C58.73 59.3838 58.3592 59.468 57.9414 59.468C57.4751 59.468 57.0654 59.3652 56.7124 59.1595C56.3594 58.9523 56.0841 58.6583 55.8865 58.2778C55.6906 57.8956 55.5926 57.4422 55.5926 56.9176C55.5926 56.5144 55.6509 56.1549 55.7675 55.8391C55.8857 55.5217 56.0509 55.2529 56.263 55.0327C56.4751 54.8125 56.7221 54.6449 57.0038 54.5299C57.2856 54.4149 57.5908 54.3574 57.9196 54.3574C58.2013 54.3574 58.4637 54.3987 58.7066 54.4813C58.9495 54.5623 59.1648 54.6773 59.3527 54.8262C59.5421 54.9752 59.6968 55.1525 59.8166 55.3582C59.9364 55.5622 60.0133 55.7873 60.0474 56.0334H58.9786Z" fill="white"/>
</g>
<defs>
<clipPath id="clip0_1_3">
<rect x="42.56" y="49.4" width="24.32" height="15.2" rx="4.18" fill="white"/>
</clipPath>
</defs>
</svg>
